<svg width="24" height="24" viewBox="0 0 24 24" fill="black" xmlns="http://www.w3.org/2000/svg">
<path d="M12 22C12.663 22 13.2989 21.7366 13.7677 21.2678C14.2365 20.799 14.4999 20.1631 14.4999 19.5001H9.50015C9.50015 20.1631 9.76352 20.799 10.2323 21.2678C10.7012 21.7366 11.337 22 12 22ZM13.2437 3.37477C13.2611 3.20097 13.242 3.02545 13.1874 2.85951C13.1328 2.69358 13.0441 2.54093 12.9269 2.41139C12.8097 2.28186 12.6667 2.17833 12.5071 2.10747C12.3474 2.03661 12.1747 2 12 2C11.8253 2 11.6526 2.03661 11.493 2.10747C11.3333 2.17833 11.1903 2.28186 11.0731 2.41139C10.9559 2.54093 10.8672 2.69358 10.8126 2.85951C10.7581 3.02545 10.7389 3.20097 10.7563 3.37477C9.34355 3.66213 8.0735 4.42891 7.16123 5.54528C6.24896 6.66164 5.75053 8.05898 5.75035 9.50068C5.75035 10.8731 5.12539 17.0003 3.25049 18.2502H20.7495C18.8746 17.0003 18.2497 10.8731 18.2497 9.50068C18.2497 6.47585 16.0998 3.95099 13.2437 3.37477Z"/>
</svg>
