<svg width="24" height="24" viewBox="0 0 24 24" fill="black" xmlns="http://www.w3.org/2000/svg">
<path d="M12 22C12.663 22 13.2989 21.7366 13.7677 21.2678C14.2365 20.799 14.4999 20.1631 14.4999 19.5001H9.50015C9.50015 20.1631 9.76352 20.799 10.2323 21.2678C10.7012 21.7366 11.337 22 12 22ZM12 4.39846L11.0038 4.5997C9.87383 4.82994 8.85809 5.44353 8.12854 6.33663C7.39898 7.22973 7.00041 8.34748 7.00028 9.50068C7.00028 10.2856 6.83279 12.2468 6.42656 14.1779C6.22658 15.1366 5.95659 16.1353 5.59786 17.0003H18.4022C18.0434 16.1353 17.7747 15.1379 17.5735 14.1779C17.1672 12.2468 16.9997 10.2856 16.9997 9.50068C16.9993 8.34769 16.6006 7.23024 15.8711 6.3374C15.1416 5.44456 14.126 4.83115 12.9962 4.60095L12 4.39721V4.39846ZM19.7746 17.0003C20.0533 17.559 20.3758 18.0015 20.7495 18.2502H3.25049C3.62422 18.0015 3.9467 17.559 4.22543 17.0003C5.35037 14.7504 5.75035 10.6006 5.75035 9.50068C5.75035 6.47585 7.90023 3.95099 10.7563 3.37477C10.7389 3.20097 10.7581 3.02545 10.8126 2.85951C10.8672 2.69358 10.9559 2.54093 11.0731 2.41139C11.1903 2.28186 11.3333 2.17833 11.493 2.10747C11.6526 2.03661 11.8253 2 12 2C12.1747 2 12.3474 2.03661 12.5071 2.10747C12.6667 2.17833 12.8097 2.28186 12.9269 2.41139C13.0441 2.54093 13.1328 2.69358 13.1874 2.85951C13.242 3.02545 13.2611 3.20097 13.2437 3.37477C14.6565 3.66213 15.9265 4.42891 16.8388 5.54528C17.7511 6.66164 18.2495 8.05898 18.2497 9.50068C18.2497 10.6006 18.6496 14.7504 19.7746 17.0003Z"/>
</svg>
