<svg width="24" height="24" viewBox="0 0 24 24" fill="black" xmlns="http://www.w3.org/2000/svg">
<path d="M2 3.875C2 3.70924 2.06585 3.55027 2.18306 3.43306C2.30027 3.31585 2.45924 3.25 2.625 3.25H4.5C4.63941 3.25004 4.77481 3.29669 4.88466 3.38253C4.99452 3.46837 5.07251 3.58848 5.10625 3.72375L5.6125 5.75H20.125C20.2168 5.75008 20.3074 5.77038 20.3904 5.80944C20.4735 5.8485 20.5469 5.90537 20.6055 5.976C20.6641 6.04664 20.7064 6.12931 20.7294 6.21815C20.7524 6.30698 20.7556 6.3998 20.7388 6.49L18.8638 16.49C18.8369 16.6332 18.7609 16.7626 18.6489 16.8557C18.5368 16.9488 18.3957 16.9999 18.25 17H7C6.85429 16.9999 6.71321 16.9488 6.60114 16.8557C6.48907 16.7626 6.41306 16.6332 6.38625 16.49L4.5125 6.50875L4.0125 4.5H2.625C2.45924 4.5 2.30027 4.43415 2.18306 4.31694C2.06585 4.19973 2 4.04076 2 3.875ZM8.25 17C7.58696 17 6.95107 17.2634 6.48223 17.7322C6.01339 18.2011 5.75 18.837 5.75 19.5C5.75 20.163 6.01339 20.7989 6.48223 21.2678C6.95107 21.7366 7.58696 22 8.25 22C8.91304 22 9.54893 21.7366 10.0178 21.2678C10.4866 20.7989 10.75 20.163 10.75 19.5C10.75 18.837 10.4866 18.2011 10.0178 17.7322C9.54893 17.2634 8.91304 17 8.25 17ZM17 17C16.337 17 15.7011 17.2634 15.2322 17.7322C14.7634 18.2011 14.5 18.837 14.5 19.5C14.5 20.163 14.7634 20.7989 15.2322 21.2678C15.7011 21.7366 16.337 22 17 22C17.663 22 18.2989 21.7366 18.7678 21.2678C19.2366 20.7989 19.5 20.163 19.5 19.5C19.5 18.837 19.2366 18.2011 18.7678 17.7322C18.2989 17.2634 17.663 17 17 17ZM8.25 18.25C8.58152 18.25 8.89946 18.3817 9.13388 18.6161C9.3683 18.8505 9.5 19.1685 9.5 19.5C9.5 19.8315 9.3683 20.1495 9.13388 20.3839C8.89946 20.6183 8.58152 20.75 8.25 20.75C7.91848 20.75 7.60054 20.6183 7.36612 20.3839C7.1317 20.1495 7 19.8315 7 19.5C7 19.1685 7.1317 18.8505 7.36612 18.6161C7.60054 18.3817 7.91848 18.25 8.25 18.25ZM17 18.25C17.3315 18.25 17.6495 18.3817 17.8839 18.6161C18.1183 18.8505 18.25 19.1685 18.25 19.5C18.25 19.8315 18.1183 20.1495 17.8839 20.3839C17.6495 20.6183 17.3315 20.75 17 20.75C16.6685 20.75 16.3505 20.6183 16.1161 20.3839C15.8817 20.1495 15.75 19.8315 15.75 19.5C15.75 19.1685 15.8817 18.8505 16.1161 18.6161C16.3505 18.3817 16.6685 18.25 17 18.25Z"/>
</svg>
