<?xml version="1.0" standalone="no"?>
<!DOCTYPE svg PUBLIC "-//W3C//DTD SVG 20010904//EN"
 "http://www.w3.org/TR/2001/REC-SVG-20010904/DTD/svg10.dtd">
<svg version="1.0" xmlns="http://www.w3.org/2000/svg"
 width="200.000000pt" height="200.000000pt" viewBox="0 0 200.000000 200.000000"
 preserveAspectRatio="xMidYMid meet" stroke="black" fill="black">

<g transform="translate(0.000000,200.000000) scale(0.100000,-0.100000)">
<path d="M836 1944 c-92 -17 -206 -60 -290 -111 -134 -82 -272 -243 -329 -385
-28 -70 -57 -198 -57 -250 0 -22 -7 -37 -20 -46 -22 -14 -26 -42 -8 -60 16
-16 120 -16 136 0 18 18 14 46 -8 60 -27 17 -26 46 2 50 17 2 27 17 43 63 30
87 58 136 115 204 84 101 213 182 357 223 102 29 322 32 423 5 99 -26 237 -99
307 -162 78 -70 154 -183 179 -264 16 -54 22 -63 46 -68 33 -7 37 -32 8 -51
-22 -14 -26 -42 -8 -60 16 -16 120 -16 136 0 18 18 14 46 -8 60 -13 9 -20 24
-20 46 0 52 -29 180 -57 250 -57 142 -195 303 -329 385 -181 109 -404 150
-618 111z m306 -78 c148 -29 279 -93 384 -188 57 -53 130 -148 158 -208 16
-33 16 -34 0 -10 -10 14 -56 63 -103 110 -99 98 -192 152 -336 196 -81 24
-105 27 -245 27 -129 0 -168 -3 -235 -22 -157 -43 -284 -119 -390 -233 -64
-69 -64 -64 1 28 164 233 476 355 766 300z"/>
<path d="M160 947 c0 -33 -7 -67 -20 -92 -28 -55 -25 -104 14 -258 59 -228
150 -430 231 -511 57 -57 129 -59 180 -6 23 24 37 30 73 30 88 0 117 42 109
159 -6 92 -38 203 -116 403 -67 171 -108 237 -164 269 -47 26 -107 22 -141
-10 -17 -16 -30 -20 -54 -15 -29 6 -32 10 -32 45 0 39 0 39 -40 39 l-40 0 0
-53z m296 -99 c33 -40 67 -113 127 -278 63 -171 89 -270 85 -327 -3 -46 -4
-48 -36 -51 -31 -3 -34 -1 -61 60 -35 77 -199 527 -208 568 -12 64 47 81 93
28z m-189 -16 c6 -4 27 -57 47 -117 29 -91 145 -404 197 -532 12 -29 11 -35
-3 -50 -55 -54 -159 107 -246 378 -51 159 -70 268 -54 303 11 26 36 33 59 18z"/>
<path d="M1760 961 c0 -35 -3 -39 -32 -45 -24 -5 -37 -1 -54 15 -34 32 -94 36
-141 10 -56 -32 -97 -98 -164 -269 -78 -200 -110 -311 -116 -403 -8 -116 21
-159 108 -159 35 0 49 -6 77 -33 28 -27 41 -32 80 -32 60 0 90 21 146 105 73
108 130 249 182 448 39 153 42 202 14 257 -13 25 -20 59 -20 92 l0 53 -40 0
c-40 0 -40 0 -40 -39z m-130 -96 c7 -9 10 -27 7 -45 -9 -41 -173 -491 -208
-568 -27 -61 -30 -63 -61 -60 -32 3 -33 5 -36 51 -7 102 140 519 212 605 30
35 65 42 86 17z m162 -51 c14 -31 2 -114 -37 -249 -80 -274 -196 -475 -254
-438 -25 16 -18 45 48 213 34 85 87 229 118 320 31 91 61 168 67 172 22 15 47
7 58 -18z"/>
</g>
</svg>
