<svg width="24" height="24" viewBox="0 0 24 24" fill="black" xmlns="http://www.w3.org/2000/svg">
<path d="M11.9999 6.06006L11.1036 5.13881C8.99987 2.97631 5.14237 3.72256 3.74987 6.44131C3.09612 7.72006 2.94862 9.56631 4.14237 11.9226C5.29237 14.1913 7.68487 16.9088 11.9999 19.8688C16.3149 16.9088 18.7061 14.1913 19.8574 11.9226C21.0511 9.56506 20.9049 7.72006 20.2499 6.44131C18.8574 3.72256 14.9999 2.97506 12.8961 5.13756L11.9999 6.06006ZM11.9999 21.3751C-7.16638 8.71006 6.09862 -1.17494 11.7799 4.05381C11.8549 4.12256 11.9286 4.19381 11.9999 4.26756C12.0704 4.19388 12.1438 4.12299 12.2199 4.05506C17.8999 -1.17744 31.1661 8.70881 11.9999 21.3751Z"/>
</svg>
