<svg width="24" height="24" viewBox="0 0 24 24" fill="black" xmlns="http://www.w3.org/2000/svg">
<path d="M10.125 20.1261V15.7449C10.125 15.4386 10.4375 15.1261 10.75 15.1261H13.25C13.5625 15.1261 13.875 15.4386 13.875 15.7511V20.1261C13.875 20.2919 13.9408 20.4508 14.0581 20.5681C14.1753 20.6853 14.3342 20.7511 14.5 20.7511H19.5C19.6658 20.7511 19.8247 20.6853 19.9419 20.5681C20.0592 20.4508 20.125 20.2919 20.125 20.1261V11.3761C20.1251 11.294 20.1091 11.2126 20.0778 11.1367C20.0465 11.0608 20.0005 10.9918 19.9425 10.9336L18.25 9.24237V5.12612C18.25 4.96036 18.1842 4.80139 18.0669 4.68418C17.9497 4.56697 17.7908 4.50112 17.625 4.50112H16.375C16.2092 4.50112 16.0503 4.56697 15.9331 4.68418C15.8158 4.80139 15.75 4.96036 15.75 5.12612V6.74237L12.4425 3.43362C12.3844 3.37541 12.3155 3.32923 12.2395 3.29773C12.1636 3.26622 12.0822 3.25 12 3.25C11.9178 3.25 11.8364 3.26622 11.7605 3.29773C11.6845 3.32923 11.6156 3.37541 11.5575 3.43362L4.0575 10.9336C3.9995 10.9918 3.95353 11.0608 3.92221 11.1367C3.8909 11.2126 3.87485 11.294 3.875 11.3761V20.1261C3.875 20.2919 3.94085 20.4508 4.05806 20.5681C4.17527 20.6853 4.33424 20.7511 4.5 20.7511H9.5C9.66576 20.7511 9.82473 20.6853 9.94194 20.5681C10.0592 20.4508 10.125 20.2919 10.125 20.1261Z"/>
</svg>
