<svg width="24" height="24" viewBox="0 0 24 24" fill="black" xmlns="http://www.w3.org/2000/svg">
<path d="M15.75 9.5C15.75 10.4946 15.3549 11.4484 14.6517 12.1517C13.9484 12.8549 12.9946 13.25 12 13.25C11.0054 13.25 10.0516 12.8549 9.34835 12.1517C8.64509 11.4484 8.25 10.4946 8.25 9.5C8.25 8.50544 8.64509 7.55161 9.34835 6.84835C10.0516 6.14509 11.0054 5.75 12 5.75C12.9946 5.75 13.9484 6.14509 14.6517 6.84835C15.3549 7.55161 15.75 8.50544 15.75 9.5Z"/>
<path fill-rule="evenodd" clip-rule="evenodd" d="M2 12C2 9.34784 3.05357 6.8043 4.92893 4.92893C6.8043 3.05357 9.34784 2 12 2C14.6522 2 17.1957 3.05357 19.0711 4.92893C20.9464 6.8043 22 9.34784 22 12C22 14.6522 20.9464 17.1957 19.0711 19.0711C17.1957 20.9464 14.6522 22 12 22C9.34784 22 6.8043 20.9464 4.92893 19.0711C3.05357 17.1957 2 14.6522 2 12ZM12 3.25C10.3522 3.25009 8.73796 3.71545 7.343 4.59253C5.94805 5.46962 4.8291 6.72276 4.11496 8.20774C3.40081 9.69272 3.12048 11.3492 3.30625 12.9864C3.49201 14.6237 4.13632 16.1753 5.165 17.4625C6.0525 16.0325 8.00625 14.5 12 14.5C15.9937 14.5 17.9462 16.0312 18.835 17.4625C19.8637 16.1753 20.508 14.6237 20.6938 12.9864C20.8795 11.3492 20.5992 9.69272 19.885 8.20774C19.1709 6.72276 18.052 5.46962 16.657 4.59253C15.262 3.71545 13.6478 3.25009 12 3.25Z"/>
</svg>
